<svg width="470" height="166" viewBox="0 0 470 166" fill="none" xmlns="http://www.w3.org/2000/svg">
<path d="M470 0H430.19C430.19 33.0552 422.228 57.4244 394.723 54.5291L306.176 45.6017C260.334 40.7762 241.756 62.0087 234.759 105.439C228.486 62.25 210.873 40.7762 163.824 45.6017L75.2772 54.5291C47.5308 57.4244 39.8101 33.0552 39.8101 0H0C0 67.3169 18.8193 111.23 80.5852 104.474L163.583 95.5465C197.844 91.9273 213.285 113.884 213.285 166H256.715C256.715 113.642 271.915 91.9273 306.176 95.5465L389.656 104.474C451.181 110.988 470 67.3169 470 0Z" fill="url(#paint0_linear)"/>
<defs>
<linearGradient id="paint0_linear" x1="-3.50177e-06" y1="83" x2="470" y2="83" gradientUnits="userSpaceOnUse">
<stop stop-color="#40CBF6"/>
<stop offset="1" stop-color="#82C041"/>
</linearGradient>
</defs>
</svg>
