<svg width="50" height="50" viewBox="0 0 50 50" fill="none" xmlns="http://www.w3.org/2000/svg">
<path fill-rule="evenodd" clip-rule="evenodd" d="M50 5.85938V44.1406C50 47.3711 47.3711 50 44.1406 50H5.85938C2.62891 50 0 47.3711 0 44.1406V5.85938C0 2.62891 2.62891 0 5.85938 0H44.1406C47.3711 0 50 2.62891 50 5.85938ZM46.0938 5.85938C46.0938 4.78223 45.2178 3.90625 44.1406 3.90625H5.85938C4.78223 3.90625 3.90625 4.78223 3.90625 5.85938V44.1406C3.90625 45.2178 4.78223 46.0938 5.85938 46.0938H26.9551V30.1758H21.0938V24.1211H26.9551V19.9385C26.9551 14.9658 30.9648 10.9375 35.9375 10.9375H39.9414V16.9922H35.9375C34.2793 16.9922 33.0078 18.2646 33.0078 19.9219V24.1211H40.0391L39.042 30.1758H33.0078V46.0938H44.1406C45.2178 46.0938 46.0938 45.2178 46.0938 44.1406V5.85938Z" fill="#17C0C2"/>
</svg>
