<svg id='cog' xmlns="http://www.w3.org/2000/svg" viewBox="0 0 150 150" height="400" width="400"> 
  <defs/>
  <path fill="#17c0c2" d="M77.11 65.94c2.1.73 9.32 3.21 22.82 7.85 4.66 1.6 8.59 2.98 8.74 3.05.25.14-32.96 12.31-33.56 12.3-.16 0-4.85-1.66-10.41-3.68-9.11-3.31-11.48-4.04-11.47-3.51 0 .09.2 3.22.44 6.96.24 3.74.44 7.02.44 7.28.01.35-.27.58-1.14.94-1.36.57-1.2.57-2.31-.01-.49-.25-.92-.48-.95-.51-.04-.03.14-3.3.39-7.26s.45-7.62.45-8.12v-.93l-4.58-1.64c-3.17-1.14-4.48-1.7-4.25-1.83.3-.17 5.37-1.93 17.19-5.98 2.08-.71 6.59-2.26 10.02-3.44l6.24-2.15 1.94.68zm-2.85 8.24h-.08-.13c-.02 0-.03.01-.04.01h-.07c-.02.01-.03.01-.04.01h-.04c-.01 0-.02.01-.03.01h-.04c-.01.01-.02.01-.03.01-.02 0-.03 0-.04.01h-.03c-.01.01-.03.01-.04.01-.01 0-.02.01-.03.01-.01 0-.02.01-.03.01-.02 0-.03 0-.04.01-.01 0-.02 0-.03.01-.01 0-.02 0-.03.01-.01 0-.02 0-.03.01-.01 0-.03 0-.04.01-.01 0-.02 0-.03.01-.01 0-.02.01-.03.01-.01 0-.02.01-.03.01-.01.01-.02.01-.02.01-.01.01-.02.01-.03.02-.01 0-.02 0-.03.01-.01 0-.02.01-.03.01-.01.01-.02.01-.02.02-.01 0-.02 0-.03.01-.01 0-.02.01-.03.01 0 .01-.01.01-.02.02-.01 0-.02.01-.02.01-.01.01-.02.01-.03.02 0 0-.01.01-.02.01l-.02.02-.02.02c-.01 0-.01.01-.02.01l-.02.02c-.01 0-.01.01-.02.02 0 0-.01.01-.02.01 0 .01-.01.01-.01.02l-.02.02-.01.01c-.01.01-.01.02-.02.02 0 .01-.01.01-.01.02-.01.01-.01.01-.01.02-.01 0-.01.01-.02.02 0 0 0 .01-.01.02 0 0 0 .01-.01.01v.02c-.01.01-.01.02-.01.02 0 .01-.01.01-.01.02s0 .01-.01.02v.04c-.01 0-.01.01-.01.02v.08c-.73.16-4.96 1.27-10.52 2.76l-10.7 2.87-.37 5.88c-.2 3.24-.43 6.71-.5 7.72-.13 1.82-.58 1.65.02 1.97.25.13.89-10.9 1.27-10.89.5.02.75 11.04 1.09 10.77.09-.08-.04-3.43-.3-7.45-.26-4.01-.43-7.33-.39-7.37.04-.05 4.89-1.37 10.78-2.95 5.82-1.56 8.77-2.39 9.98-2.84 0 .01.01.01.01.01.01.01.01.01.02.01 0 .01.01.01.01.01.01 0 .02.01.02.01.01.01.02.01.03.01l.02.02c.01 0 .02.01.03.01.01 0 .02.01.03.01.01.01.02.01.03.02.01 0 .02 0 .03.01.01 0 .02 0 .03.01.01 0 .02.01.03.01.01 0 .02.01.03.01.01 0 .02.01.03.01.01 0 .02.01.03.01.01 0 .03.01.04.01.01 0 .02.01.03.01.01 0 .02 0 .03.01.01 0 .03 0 .04.01h.03c.01.01.02.01.04.01.01 0 .02.01.03.01h.04c.01.01.02.01.03.01.01 0 .03 0 .04.01h.03c.02 0 .03 0 .04.01H74c.02 0 .03.01.04.01H74.19c.01 0 .02.01.04.01h.09c.01-.01.01-.01.02-.01h.14c.01 0 .03-.01.04-.01h.07c.01-.01.03-.01.04-.01h.03c.02 0 .03-.01.04-.01h.04c.01-.01.02-.01.03-.01.01 0 .02 0 .04-.01h.03c.01-.01.02-.01.03-.01.02 0 .03-.01.04-.01.01 0 .02-.01.03-.01.01 0 .02 0 .03-.01.02 0 .03 0 .04-.01.01 0 .02 0 .03-.01.01 0 .02 0 .03-.01.01 0 .02 0 .03-.01.01 0 .02 0 .03-.01.01 0 .02-.01.03-.01.01 0 .02-.01.03-.01.01-.01.02-.01.03-.01.01-.01.02-.01.03-.02.01 0 .02 0 .03-.01.01 0 .02-.01.03-.01 0-.01.01-.01.02-.02.01 0 .02-.01.03-.01.01 0 .01-.01.02-.01.01-.01.02-.01.03-.02.01 0 .01-.01.02-.01.01-.01.02-.01.02-.02.01 0 .02-.01.03-.01 0-.01.01-.01.02-.02 0-.01.01-.01.02-.02.01 0 .01-.01.02-.01 0-.01.01-.01.02-.02l.02-.02.01-.01.02-.02.02-.02.01-.01c.01-.01.01-.02.01-.02l.02-.02c0-.01.01-.01.01-.02s.01-.01.01-.02c.01 0 .01-.01.01-.02.01 0 .01-.01.01-.01.01-.01.01-.02.01-.02 0-.01.01-.02.01-.02 0-.01 0-.01.01-.02v-.02c0-.01.01-.01.01-.02v-.02V75c.01 0 .01-.01.01-.02v-.02-.01-.02-.01-.02-.01c-.01-.01-.01-.01-.01-.02v-.02s0-.01-.01-.02v-.02l-.01-.01c0-.01 0-.02-.01-.02 0-.01 0-.02-.01-.02 0-.01 0-.01-.01-.02 0-.01 0-.01-.01-.02 0 0 0-.01-.01-.02 0 0 0-.01-.01-.02l-.01-.01c-.01-.01-.01-.02-.02-.02 0-.01-.01-.01-.01-.02-.01 0-.01-.01-.02-.02l-.01-.01-.02-.02-.02-.02s-.01-.01-.02-.01c0-.01-.01-.01-.02-.02 0-.01-.01-.01-.02-.02-.01 0-.01-.01-.02-.01l-.02-.02c-.01 0-.02-.01-.02-.01-.01-.01-.02-.01-.03-.02-.01 0-.01-.01-.02-.01-.01-.01-.02-.01-.03-.02-.01 0-.01-.01-.02-.01s-.02-.01-.03-.01c-.01-.01-.02-.01-.03-.02-.01 0-.01-.01-.02-.01s-.02-.01-.03-.01c-.01-.01-.02-.01-.03-.01-.01-.01-.02-.01-.03-.02-.01 0-.02 0-.03-.01-.01 0-.02-.01-.03-.01-.01 0-.02-.01-.03-.01-.01 0-.02-.01-.03-.01-.01 0-.03-.01-.04-.01-.01 0-.02-.01-.03-.01-.01 0-.02-.01-.03-.01-.01 0-.02 0-.04-.01-.01 0-.02 0-.03-.01h-.03c-.01-.01-.03-.01-.04-.01-.01 0-.02 0-.03-.01h-.04c-.01-.01-.02-.01-.03-.01h-.04c-.01-.01-.02-.01-.04-.01h-.03c-.01-.01-.03-.01-.04-.01h-.04c-.01 0-.02 0-.03-.01h-.23zm-16.35 9.97c0-.04 2.88.97 6.41 2.25 3.52 1.28 7.41 2.69 8.64 3.12l2.23.79 8.06-2.93c4.43-1.61 8.2-2.98 8.37-3.04.25-.1.45.83 1.01 4.62.38 2.61.63 4.81.54 4.89-5.87 5.86-17.3 7.05-19.41 6.94-5.69-.36-15.62-3.69-17.19-7.8 0-.27.3-2.36.67-4.63.37-2.28.67-4.17.67-4.21z"/>
  <path fill="none" stroke="#E63946" stroke-width="2px"  d="M17.64 46.95C37.62 73.75 5.81 43.11 2.6 42.9C1.63 41.11 5.72 34.44 7.75 34.51C9.79 34.57 16.42 45.32 17.64 46.95Z" />
  <path fill="none" stroke="#E63946" stroke-width="2px" d="M16.34 69.01C49.43 73.69 5.28 74.7 2.87 76.84C0.91 76.26 -0.94 68.67 0.53 67.27C2.01 65.87 14.32 68.72 16.34 69.01Z"/>
  <path fill="none" stroke="#E63946" stroke-width="2px" d="M20.05 92.12C43.64 68.44 17.98 104.39 18.24 107.6C16.61 108.82 9.42 105.75 9.18 103.73C8.95 101.7 18.62 93.57 20.05 92.12Z" />
  <path fill="none" stroke="#E63946" stroke-width="2px"  d="M129.73 46.95C109.75 73.75 141.56 43.11 144.78 42.9C145.74 41.11 141.66 34.44 139.62 34.51C137.59 34.57 130.95 45.32 129.73 46.95Z" />
  <path fill="none" stroke="#E63946" stroke-width="2px"  d="M131.04 69.01C97.94 73.69 142.1 74.7 144.51 76.84C146.46 76.26 148.32 68.67 146.84 67.27C145.36 65.87 133.06 68.72 131.04 69.01L131.04 69.01Z" />
  <path fill="none" stroke="#E63946" stroke-width="2px"  d="M127.32 92.12C103.73 68.44 129.4 104.39 129.13 107.6C130.77 108.82 137.96 105.75 138.19 103.73C138.43 101.7 128.76 93.57 127.32 92.12Z"/>
</svg>