<svg version="1.2" baseProfile="tiny-ps" xmlns="http://www.w3.org/2000/svg" viewBox="0 0 401 401" width="401" height="401">
	<title>mortarboard-svg</title>
	<style>
		tspan { white-space:pre }
		.shp0 { fill: #17c0c2 } 
		.shp1 { fill: #e63946 } 
	</style>
	<g id="Layer">
		<g id="Layer">
			<path id="Layer" fill-rule="evenodd" class="shp0" d="M399.33 250.99C398.82 252.53 396.77 253.55 395.23 253.55L394.72 253.55L363.49 249.97L362.98 310.9C365.54 311.92 368.1 313.46 370.14 315.5C373.73 318.58 375.26 323.18 375.26 327.79C375.26 332.4 373.73 337.01 370.14 340.08C369.12 341.1 368.1 342.13 366.56 342.64C369.12 345.71 371.17 349.3 373.22 354.42C375.78 361.58 377.82 370.29 377.82 375.41C377.82 386.16 368.61 395.38 357.34 395.38C351.71 395.38 346.59 393.33 343.01 389.23C339.42 385.65 337.38 380.53 337.38 374.9C337.38 369.26 340.96 350.83 349.15 342.64C348.13 342.13 346.59 341.1 345.57 340.08C341.98 337.01 340.45 332.4 340.45 327.79C340.45 323.18 341.98 318.58 345.57 315.5C347.62 313.46 350.18 312.43 352.74 311.41L353.25 249.46L333.28 246.9L293.34 310.9C287.71 319.6 279.01 324.72 268.77 325.23C264.16 325.74 259.55 325.74 254.94 325.74C88.03 325.74 19.94 199.28 2.53 159.34C-1.57 150.13 -0.54 139.38 4.58 131.18L44.51 67.7L9.7 12.91C8.67 10.86 8.67 8.82 9.7 7.28C10.72 5.23 12.77 4.72 14.81 4.72L262.11 33.39C263.65 33.9 264.67 34.42 265.69 35.95L399.33 245.87C400.35 247.92 400.35 249.97 399.33 250.99ZM322.01 245.87L147.42 225.9C145.89 225.39 144.86 224.88 143.84 223.34L50.65 77.42L13.28 136.82C9.69 142.45 9.18 149.1 11.74 155.25C28.13 193.65 94.17 315.5 254.43 315.5C259.04 315.5 263.13 314.99 267.74 314.99C274.4 314.99 280.54 311.41 284.13 305.78L322.01 245.87ZM357.34 349.3C353.76 350.32 347.1 367.22 347.1 375.92C347.1 381.55 351.71 386.16 357.34 386.16C362.98 386.16 367.58 381.55 367.58 375.92C367.58 367.22 360.93 350.32 357.34 349.3ZM357.86 321.14C355.81 321.14 354.27 321.65 352.74 323.18C351.71 324.72 350.69 326.26 350.69 328.3C350.69 330.35 351.2 331.89 352.74 333.42C354.27 334.45 355.81 335.47 357.86 335.47C359.9 335.47 361.44 334.96 362.98 333.42C364 331.89 365.02 330.35 365.02 328.3C365.02 326.26 364.51 324.72 362.98 323.18C361.44 321.65 359.9 321.14 357.86 321.14ZM385.5 242.8L258.53 43.63L24.03 16.5L150.5 215.66L385.5 242.8Z" />
		</g>
	</g>
	<g id="Layer">
		<g id="Layer">
			<path id="Layer" class="shp1" d="M58.34 275.06C55.26 275.06 53.22 277.1 53.22 280.18L53.22 322.67C53.22 325.74 55.26 327.79 58.34 327.79C61.41 327.79 63.45 325.74 63.45 322.67L63.45 280.18C63.45 277.1 60.9 275.06 58.34 275.06Z" />
		</g>
	</g>
	<g id="Layer">
		<g id="Layer">
			<path id="Layer" class="shp1" d="M58.34 336.5C55.26 336.5 53.22 338.54 53.22 341.62L53.22 390.26C53.22 393.33 55.26 395.38 58.34 395.38C61.41 395.38 63.45 393.33 63.45 390.26L63.45 341.62C63.45 339.06 60.9 336.5 58.34 336.5Z" />
		</g>
	</g>
	<g id="Layer">
		<g id="Layer">
			<path id="Layer" class="shp1" d="M89.57 304.24C86.49 304.24 84.45 306.29 84.45 309.36L84.45 322.16C84.45 325.23 86.49 327.28 89.57 327.28C92.64 327.28 94.69 325.23 94.69 322.16L94.69 309.36C94.69 306.29 92.13 304.24 89.57 304.24Z" />
		</g>
	</g>
	<g id="Layer">
		<g id="Layer">
			<path id="Layer" class="shp1" d="M89.57 336.5C86.49 336.5 84.45 338.54 84.45 341.62L84.45 390.26C84.45 393.33 86.49 395.38 89.57 395.38C92.64 395.38 94.69 393.33 94.69 390.26L94.69 341.62C94.69 339.06 92.13 336.5 89.57 336.5Z" />
		</g>
	</g>
	<g id="Layer">
		<g id="Layer">
			<path id="Layer" class="shp1" d="M123.36 331.89C120.29 331.89 118.24 333.94 118.24 337.01L118.24 390.26C118.24 393.33 120.29 395.38 123.36 395.38C126.43 395.38 128.48 393.33 128.48 390.26L128.48 337.01C128.48 334.45 126.43 331.89 123.36 331.89Z" />
		</g>
	</g>
	<g id="Layer">
		<g id="Layer">
			<path id="Layer" class="shp1" d="M157.15 351.86C154.08 351.86 152.03 353.9 152.03 356.98L152.03 390.26C152.03 393.33 154.08 395.38 157.15 395.38C160.22 395.38 162.27 393.33 162.27 390.26L162.27 356.98C162.27 353.9 159.71 351.86 157.15 351.86Z" />
		</g>
	</g>
	<g id="Layer">
	</g>
	<g id="Layer">
	</g>
	<g id="Layer">
	</g>
	<g id="Layer">
	</g>
	<g id="Layer">
	</g>
	<g id="Layer">
	</g>
	<g id="Layer">
	</g>
	<g id="Layer">
	</g>
	<g id="Layer">
	</g>
	<g id="Layer">
	</g>
	<g id="Layer">
	</g>
	<g id="Layer">
	</g>
	<g id="Layer">
	</g>
	<g id="Layer">
	</g>
	<g id="Layer">
	</g>
</svg>