<?xml version="1.0" encoding="UTF-8" standalone="no"?>
<svg
   xmlns:dc="http://purl.org/dc/elements/1.1/"
   xmlns:cc="http://creativecommons.org/ns#"
   xmlns:rdf="http://www.w3.org/1999/02/22-rdf-syntax-ns#"
   xmlns:svg="http://www.w3.org/2000/svg"
   xmlns="http://www.w3.org/2000/svg"
   width="151.31233mm"
   height="177.8mm"
   viewBox="0 0 151.31233 177.8"
   version="1.1"
   id="svg136">
  <defs
     id="defs130" />
  <metadata
     id="metadata133">
    <rdf:RDF>
      <cc:Work
         rdf:about="">
        <dc:format>image/svg+xml</dc:format>
        <dc:type
           rdf:resource="http://purl.org/dc/dcmitype/StillImage" />
        <dc:title></dc:title>
      </cc:Work>
    </rdf:RDF>
  </metadata>
  <path
     id="path4633"
     d="m 75.165532,67.25597 -6.232715,2.150728 c -3.428039,1.182899 -7.938336,2.734265 -10.022949,3.447523 -11.816365,4.042979 -16.890369,5.805929 -17.188445,5.972759 -0.231795,0.12968 1.0754,0.69383 4.246609,1.83197 l 4.581012,1.64385 v 0.92363 c 0,0.50778 -0.203634,4.16413 -0.452446,8.12566 -0.24878,3.96149 -0.42437,7.22657 -0.390157,7.25561 0.03418,0.0289 0.463579,0.26165 0.954084,0.51688 1.106133,0.57554 0.947341,0.57516 2.311411,0.008 0.868872,-0.36108 1.144328,-0.58929 1.142645,-0.94756 -0.0011,-0.25955 -0.201093,-3.5321 -0.444157,-7.27215 -0.243094,-3.74008 -0.442892,-6.87539 -0.443738,-6.96735 -0.0062,-0.52454 2.362714,0.20074 11.469983,3.51155 5.565681,2.02332 10.252821,3.68082 10.415741,3.6831 0.60024,0.009 33.80963,-12.16009 33.55601,-12.2956 -0.14458,-0.0772 -4.07511,-1.45034 -8.734885,-3.05126 C 86.429666,71.154225 79.205843,68.666827 77.11247,67.93581 Z m -0.900972,8.91907 a 1.4953104,0.76955911 0 0 1 0.148944,0.004 1.4953104,0.76955911 0 0 1 0.147941,0.0119 1.4953104,0.76955911 0 0 1 0.144575,0.0199 1.4953104,0.76955911 0 0 1 0.140603,0.0262 1.4953104,0.76955911 0 0 1 0.134633,0.0336 1.4953104,0.76955911 0 0 1 0.127098,0.0401 1.4953104,0.76955911 0 0 1 0.119352,0.0466 1.4953104,0.76955911 0 0 1 0.109224,0.0526 1.4953104,0.76955911 0 0 1 0.09847,0.0574 1.4953104,0.76955911 0 0 1 0.08718,0.0627 1.4953104,0.76955911 0 0 1 0.07443,0.0665 1.4953104,0.76955911 0 0 1 0.06094,0.0704 1.4953104,0.76955911 0 0 1 0.04704,0.0726 1.4953104,0.76955911 0 0 1 0.03261,0.0753 1.4953104,0.76955911 0 0 1 0.01788,0.0762 1.4953104,0.76955911 0 0 1 0.0042,0.0545 1.4953104,0.76955911 0 0 1 -0.0083,0.0766 1.4953104,0.76955911 0 0 1 -0.02227,0.0762 1.4953104,0.76955911 0 0 1 -0.0369,0.0744 1.4953104,0.76955911 0 0 1 -0.05143,0.0723 1.4953104,0.76955911 0 0 1 -0.06492,0.0693 1.4953104,0.76955911 0 0 1 -0.07808,0.0658 1.4953104,0.76955911 0 0 1 -0.09052,0.0609 1.4953104,0.76955911 0 0 1 -0.101916,0.0566 1.4953104,0.76955911 0 0 1 -0.112401,0.0505 1.4953104,0.76955911 0 0 1 -0.121536,0.0448 1.4953104,0.76955911 0 0 1 -0.12967,0.0384 1.4953104,0.76955911 0 0 1 -0.136233,0.0314 1.4953104,0.76955911 0 0 1 -0.141993,0.0245 1.4953104,0.76955911 0 0 1 -0.145955,0.0159 1.4953104,0.76955911 0 0 1 -0.148547,0.0104 1.4953104,0.76955911 0 0 1 -0.10545,0.002 1.4953104,0.76955911 0 0 1 -0.14933,-0.004 1.4953104,0.76955911 0 0 1 -0.14815,-0.0119 1.4953104,0.76955911 0 0 1 -0.144575,-0.0199 1.4953104,0.76955911 0 0 1 -0.140593,-0.0262 1.4953104,0.76955911 0 0 1 -0.134644,-0.0336 1.4953104,0.76955911 0 0 1 -0.127098,-0.0406 1.4953104,0.76955911 0 0 1 -0.119341,-0.0461 1.4953104,0.76955911 0 0 1 -0.109223,-0.0526 1.4953104,0.76955911 0 0 1 -0.06136,-0.0362 c -1.212076,0.44343 -4.162414,1.2797 -9.984234,2.83962 -5.886001,1.57709 -10.735967,2.90075 -10.777612,2.94108 -0.04171,0.0404 0.134635,3.36113 0.391485,7.37971 0.256955,4.01859 0.391422,7.36821 0.298714,7.44373 -0.335603,0.27348 -0.587592,-10.74811 -1.083407,-10.76757 -0.384952,-0.0159 -1.024558,11.01903 -1.275889,10.88734 -0.600491,-0.31464 -0.150931,-0.14556 -0.01788,-1.96742 0.0739,-1.00752 0.300062,-4.47992 0.502515,-7.71632 l 0.367965,-5.88435 10.701817,-2.87012 c 5.552855,-1.48922 9.787633,-2.5955 10.516779,-2.75687 a 1.4953104,0.76955911 0 0 1 -0.0021,-0.0289 1.4953104,0.76955911 0 0 1 0.0083,-0.077 1.4953104,0.76955911 0 0 1 0.02227,-0.0759 1.4953104,0.76955911 0 0 1 0.0369,-0.0744 1.4953104,0.76955911 0 0 1 0.05143,-0.0723 1.4953104,0.76955911 0 0 1 0.06491,-0.0693 1.4953104,0.76955911 0 0 1 0.07808,-0.0657 1.4953104,0.76955911 0 0 1 0.09052,-0.0614 1.4953104,0.76955911 0 0 1 0.101917,-0.0562 1.4953104,0.76955911 0 0 1 0.1124,-0.0504 1.4953104,0.76955911 0 0 1 0.121537,-0.0449 1.4953104,0.76955911 0 0 1 0.129679,-0.0384 1.4953104,0.76955911 0 0 1 0.136234,-0.0314 1.4953104,0.76955911 0 0 1 0.141982,-0.0245 1.4953104,0.76955911 0 0 1 0.145965,-0.0159 1.4953104,0.76955911 0 0 1 0.148537,-0.009 1.4953104,0.76955911 0 0 1 0.105846,-0.002 z m -16.357988,9.97069 c 0,0.0404 -0.301004,1.93504 -0.668886,4.21002 -0.367881,2.27497 -0.667923,4.35928 -0.66623,4.63197 1.56621,4.11296 11.498563,7.43999 17.186668,7.79863 2.115282,0.10981 13.544887,-1.07556 19.416233,-6.93208 0.08383,-0.0812 -0.161655,-2.28277 -0.545624,-4.89237 -0.557404,-3.78831 -0.761279,-4.72071 -1.010697,-4.625 -0.171784,0.066 -3.938969,1.43684 -8.371716,3.04646 l -8.059464,2.92672 -2.230401,-0.78948 c -1.226593,-0.43418 -5.114478,-1.83783 -8.639939,-3.11919 -3.525481,-1.28136 -6.409944,-2.29629 -6.409944,-2.25568 z"
     style="fill:#000000;stroke-width:1" />
  <path
     d="m 58.266661,119.11561 c -0.28081,-2.31669 -1.193441,-6.10761 -4.141944,-6.10761 -2.246478,0 -4.984372,3.43991 -6.388422,4.91417 -3.439918,3.58032 -6.599029,7.58186 -9.617733,11.65359 -6.388421,8.63491 -12.215224,17.97183 -16.637977,27.80017 2.106073,-6.17781 3.861134,-12.56624 6.248016,-18.60364 0.0702,-0.28082 4.703564,-11.23239 5.7566,-13.05766 -0.702024,1.12325 -2.808097,5.6162 -3.790931,7.65207 1.825263,-4.07174 3.790931,-8.14349 5.826802,-12.07482 -0.210608,0.42121 -0.491417,1.12324 -0.421215,1.12324 0.28081,0.0702 1.755061,-2.8081 1.544454,-2.8783 l -0.280809,0.2106 c 0.421214,-0.63181 0.702024,-0.98282 0.351012,-1.96566 -0.491417,-1.19344 -1.825264,-2.59749 -3.088908,-2.8081 -1.895465,-0.28081 -3.159109,1.54446 -3.931336,3.0187 -0.421214,0.84244 -1.193442,1.33385 -1.755061,2.31668 -0.912632,1.47426 -1.544454,3.08891 -2.176276,4.70357 -0.351012,0.70202 -4.141944,9.61773 -3.931336,9.68794 l 0.210608,-0.28081 c -0.280811,0.63182 -0.421216,1.33385 -0.702025,1.96566 -0.0702,-0.0702 0.210607,-0.56162 0.0702,-0.63181 -0.631822,-0.14041 -2.667692,6.24801 -2.737895,6.73942 -0.28081,1.47425 -0.631822,2.8081 -1.123239,4.21215 -0.351012,0.91263 -0.702024,1.82527 -0.912632,2.8081 0,0.0702 -0.280809,1.54445 -0.140404,1.47425 v 0.35102 c -0.0702,-0.0702 -0.0702,-0.21062 -0.0702,-0.28082 -0.210608,0.0702 -0.56162,2.38689 -0.631822,2.59749 -0.491417,1.19345 -1.053037,2.31668 -1.404049,3.58032 -0.982834,3.43993 -1.404049,6.95005 -1.895466,10.46017 -0.351012,2.24648 -1.614656,6.24802 -0.210607,8.28388 0.982834,1.40405 4.352551,2.7379 5.686397,0.98284 0.56162,-0.63182 0.421215,-1.82526 0.56162,-2.45708 0.421214,-3.51013 1.333846,-6.38843 2.667692,-9.68794 2.737896,-6.73944 6.107612,-13.26826 9.898544,-19.51628 3.159109,-5.05457 6.107612,-10.31976 9.828341,-15.02332 2.316681,-2.9485 4.633361,-5.897 7.160648,-8.6349 0.561619,-0.63182 3.018705,-3.65053 4.141944,-3.22931 1.404049,0.49141 0.0702,5.33539 -0.140405,6.31822 -0.772227,3.51012 -1.755061,7.02025 -2.948502,10.46016 -1.965669,5.61619 -3.790932,11.37279 -6.177814,16.70818 -1.544454,3.43992 -3.299515,6.80964 -5.124778,10.03895 -1.544453,2.59749 -3.72073,7.09045 -7.020244,7.93287 -3.790931,0.91264 -6.318219,-4.70355 -7.581862,-7.44145 0,4.98437 2.948501,10.17935 8.283887,11.09198 5.405587,0.91264 10.038948,-4.77376 12.776843,-8.6349 2.176275,-3.0187 4.141943,-6.38842 5.686397,-9.75814 0.351012,-0.84243 0.421215,-1.68485 0.631822,-2.45708 0.351012,-1.33384 1.333846,-2.5975 1.895466,-3.86114 1.544453,-3.51012 2.878299,-6.95004 3.931336,-10.60056 0.56162,-1.75506 1.053037,-3.51012 1.404049,-5.33539 0.140405,-0.70202 0.28081,-1.54445 0.351012,-2.24648 0,-0.42121 -0.28081,-1.05304 -0.28081,-1.19344 -0.0702,-1.68485 0.491417,-3.43992 0.56162,-5.19498 0.0702,-1.68486 0,-3.43992 -0.210608,-5.12477 z m -38.04972,24.99206 c 0.210607,-1.68485 1.053036,-3.51012 1.684859,-5.12478 0.772227,-2.10607 1.544453,-4.07174 2.59749,-6.10761 1.333846,-2.66769 2.59749,-5.40559 4.141943,-8.00308 -0.140405,0.35101 -0.210607,1.05304 -0.421215,1.47426 -0.280809,0.63181 -0.702024,1.26364 -0.982834,1.96566 -0.702024,1.54446 -1.333846,3.08891 -2.106072,4.63337 -0.982834,2.03586 -1.895466,4.00153 -2.737895,6.0374 -0.491417,1.12324 -0.84243,2.24648 -1.263645,3.36972 -0.210607,0.70202 -0.421214,2.17628 -0.842428,2.66769 -0.140405,0.1404 -0.0702,-0.91263 -0.0702,-0.91263 z m 22.113768,13.12785 c -0.210609,0.35102 -0.421216,0.70203 -0.561621,1.05304 l -0.351012,0.70202 c -0.0702,0 -0.0702,0.0702 -0.0702,0.14041 -1.333846,2.45709 -2.808097,4.98438 -4.35255,7.23085 -0.210607,0.28081 -4.633361,5.89701 -5.265183,4.42276 -0.0702,-0.21062 1.404049,-0.49142 1.474251,-0.56163 0.982834,-0.49141 1.825263,-1.54444 2.527288,-2.38687 1.684858,-2.17628 3.159109,-4.63337 4.492955,-7.02025 1.123239,-1.96567 2.176277,-3.93134 3.088908,-5.897 l -0.561619,1.33385 c 0.280809,-0.56163 0.491417,-1.12325 0.702024,-1.68487 l 0.421214,-0.98283 -0.0702,0.35101 c 0.140404,-0.35101 0.280809,-0.77223 0.491417,-1.12324 v -0.0702 c 0.351012,-0.70203 0.631821,-1.26365 0.702024,-1.26365 0,0.0702 -2.386883,5.26518 -2.667692,5.6864 z m 5.124777,-7.51166 c -0.351012,1.40405 -0.842429,2.8081 -1.474251,4.07175 -0.56162,1.05304 -1.544454,2.10607 -1.895466,3.22931 0.842429,-2.52729 2.31668,-4.84397 3.369717,-7.37126 z m -26.185509,-4.07174 c -0.561619,0.91263 -0.351012,1.96567 -0.631822,2.87831 -0.210607,0.42121 -0.982833,1.26364 -1.123238,1.82526 0,-0.42121 0.140405,-0.98284 0.210607,-1.33385 0.0702,-0.70203 0.421215,-0.98283 0.772227,-1.54445 0.280809,-0.42122 0.421214,-1.82527 0.982834,-2.03587 z m 15.795549,20.92033 c 0.982834,-1.47425 1.965668,-3.01871 2.878299,-4.70356 -0.912631,1.75506 -1.825263,3.29952 -2.878299,4.70356 z m -7.441458,-43.45531 c 0.280809,0.14041 0.210607,0.28081 -0.140405,0.63183 -0.140405,-0.14041 -0.140405,-0.35102 0.140405,-0.63183 z m -1.684859,14.39151 v 0.0702 l -1.123239,2.66769 1.825263,-4.49295 c -0.210607,0.63182 -0.421215,1.19344 -0.702024,1.75506 z m 12.636438,23.0966 c 0,0.1404 -0.0702,0.2106 -0.140405,0.35101 z m 2.948503,-6.17782 c 0,0.0702 0,0.0702 -0.0702,0.1404 0,-0.0702 0.0702,-0.0702 0.0702,-0.1404 z"
     style="font-style:normal;font-variant:normal;font-weight:normal;font-stretch:normal;font-size:medium;line-height:387.84732056px;font-family:Playlist;-inkscape-font-specification:Playlist;letter-spacing:0px;word-spacing:0px;fill:#000000;fill-opacity:1;stroke:none;stroke-width:0.26458332px;stroke-linecap:butt;stroke-linejoin:miter;stroke-opacity:1"
     id="path4715" />
  <path
     d="m 86.58786,151.12791 c 0,0 0.0702,0.0702 0,-0.0702 -0.351013,-0.49141 -0.842429,-0.1404 -1.333846,0 -2.035871,0.42122 -4.141944,0.91263 -6.248017,1.26365 0.772226,-2.52729 1.544453,-5.19498 1.825263,-7.79247 0.140405,-0.98284 0.210607,-2.03587 0,-3.01871 -0.140405,-0.63182 -0.351012,-1.26364 -0.702024,-1.82526 0,0 -0.84243,-1.05304 -0.631822,-0.49142 l -0.0702,-0.0702 -0.28081,-0.56161 0.28081,0.2808 c 0.0702,-0.42121 -1.123239,-1.19344 -1.123239,-1.19344 -1.755061,-1.75506 -4.141944,-3.0889 -6.528826,-1.75506 -1.474251,0.84243 -2.667693,2.24648 -3.650527,3.65053 -0.351013,0.49141 -0.702025,1.05303 -0.982834,1.61465 -0.28081,0.56163 -0.702025,2.38689 -1.123239,2.6677 -0.351012,0.2808 -1.404049,0.35101 -1.895466,0.63182 -0.702024,0.28081 -1.333846,0.63182 -1.895465,1.05303 -1.333847,0.84243 -2.386884,2.03588 -3.369718,3.22932 -1.684858,2.24648 -2.527287,4.77376 -3.720729,7.02024 -2.246478,4.28235 0.210608,9.89854 4.352551,11.93441 1.333846,0.63183 2.878301,0.91263 4.282349,0.77223 1.474251,-0.21061 2.8783,-0.98283 4.001538,-1.82526 1.053037,-0.77223 3.369718,-2.17627 3.790932,-3.36972 0,-0.0702 -0.140405,0 -0.351012,0.21061 l 2.03587,-2.38689 c 0.0702,0.0702 -0.491417,0.77223 -0.491417,0.77223 0.491417,0.21061 3.018706,-3.51012 3.299515,-3.79093 0.491417,-0.84243 0.982834,-1.75506 1.544454,-2.59749 0.491417,-0.63182 0.351012,-0.56162 1.053036,-0.84243 -0.0702,0.0702 0.842429,-0.21061 0.982834,-0.21061 0.772227,-0.1404 8.985911,-0.70202 6.950041,-3.29951 z M 62.297818,165.3088 h -0.0702 c -5.826802,0.84243 0.912631,-11.51319 1.053036,-12.21521 l -0.421214,0.63181 c 1.053036,-2.10607 2.03587,-3.79092 2.527287,-4.35255 0.772227,3.51012 4.563158,4.84397 7.652065,5.26518 -2.03587,4.07175 -5.826802,9.75814 -10.740972,10.67077 z m 13.829879,-19.44607 c -0.491418,1.96567 -0.912632,4.56316 -1.965669,6.31822 -0.351012,0.70202 -0.140404,0.49142 -0.842429,0.63182 -0.421214,0.14041 -1.333846,0 -1.75506,-0.0702 -0.772227,-0.0702 -1.684858,-0.21062 -2.246478,-0.70203 -0.982835,-0.84243 -0.84243,-2.17628 -0.702025,-3.36972 0.140405,-1.19344 0.491418,-2.31668 0.912632,-3.43991 0.210608,-0.42122 1.544454,-2.6677 1.333846,-3.08892 -0.0702,-0.2106 -0.842429,1.05304 -0.912631,1.12324 0.421214,-0.77222 0.842429,-1.19343 1.193441,-1.68485 -0.0702,0 0,-0.0702 0.0702,-0.21061 v 0.0702 l 0.0702,-0.14041 c 0,0 0,-0.0702 0.0702,-0.0702 1.053036,-1.40404 3.650526,-4.56315 5.054575,-2.38688 1.053037,1.82527 0.0702,5.26518 -0.280809,7.02024 z m -4.843968,-4.56316 0.0702,-0.0702 c 0,0.0702 -0.0702,0.0702 -0.0702,0.0702 z"
     style="font-style:normal;font-variant:normal;font-weight:normal;font-stretch:normal;font-size:medium;line-height:387.84732056px;font-family:Playlist;-inkscape-font-specification:Playlist;letter-spacing:0px;word-spacing:0px;fill:#000000;fill-opacity:1;stroke:none;stroke-width:0.26458332px;stroke-linecap:butt;stroke-linejoin:miter;stroke-opacity:1"
     id="path4717" />
  <path
     d="m 110.78137,151.90014 c -0.35101,-1.68486 -1.33384,-0.56161 -1.75506,0.0702 -0.98283,1.19344 -2.52729,2.31668 -3.72072,3.43992 -1.61467,1.40405 -3.22932,2.8783 -4.91417,4.21215 -0.842433,0.70202 -1.895471,1.68486 -2.948507,2.03587 -0.140406,0.0702 -0.631823,0.1404 -0.631823,0.21061 l -0.0702,-0.0702 c 0,0 -0.0702,-1.12323 0,-1.19343 0.0702,-0.91264 0.351012,-1.82527 0.631822,-2.6677 0.07021,-0.14041 0.84243,-2.52729 0.702025,-2.52729 l -0.351012,0.42121 c 0.421215,-0.84243 0.982834,-1.68485 1.474251,-2.59749 -1.123239,1.05304 -1.895466,2.24648 -2.457086,3.72074 -0.28081,0.70202 -1.053036,1.96566 -1.193441,3.0187 0.140405,-1.54445 1.193441,-3.58033 1.684858,-4.49296 0.702025,-1.47425 1.474252,-3.15911 2.386878,-4.56316 1.684865,-2.52728 5.335385,-4.84396 4.212145,-8.35409 -0.98283,-3.2995 -3.58032,-3.36971 -5.616188,-1.47425 -0.982835,0.91263 -9.336924,11.58341 -9.126317,11.72381 0,0 0.702024,-0.84243 1.614657,-2.03587 l -4.141944,6.03741 c -0.0702,0 0.702024,-1.19344 0.631821,-1.26364 -0.0702,-0.0702 -0.561619,0.42121 -0.631821,0.70202 0.140404,-1.47425 0.631821,-2.9485 0.772226,-4.42276 0.0702,-0.56161 0,-0.98282 0.140405,-1.54444 0.28081,-0.91264 0.561619,-1.89547 0.982834,-2.6677 0.28081,-0.56162 0.842429,-1.05304 0.982834,-1.61466 0.28081,-0.91263 0.210607,-1.26364 0.842429,-2.03587 0.56162,-0.70202 1.40405,-1.40405 1.895466,-2.03586 1.193442,-1.75507 -0.842429,-2.94851 -1.965668,-3.15911 -0.912632,-0.14041 -1.825263,-0.21061 -2.667692,0.2808 -0.912632,0.56163 -0.702025,1.05304 -0.912632,1.82527 -0.210607,0.98283 -0.912632,2.10607 -1.263644,3.0187 -0.561619,1.47426 -1.053036,2.94851 -1.544453,4.42275 -0.56162,1.47426 -1.12324,2.87831 -1.544454,4.35256 -0.351012,1.19344 -0.28081,2.31667 -0.421215,3.43992 -0.140405,1.26364 -0.351012,2.10607 0.28081,3.22931 0.702024,1.19344 2.59749,3.01871 3.861134,1.47425 l 0.28081,0.56162 c 1.193441,-2.59749 3.018704,-4.91417 4.492956,-7.44146 0.631822,-1.12324 1.755061,-1.89546 2.667692,-3.0889 1.263644,-1.68487 2.386883,-3.36972 3.790931,-4.98438 -0.210607,0.35101 -1.123239,1.96567 -1.053036,2.03587 0.140405,-0.0702 0.210607,-0.2106 0.351012,-0.35101 l -0.982834,1.96567 c -0.0702,-0.0702 0.28081,-0.56162 0.140405,-0.56162 -0.491417,-0.14041 -1.965668,3.79093 -2.106073,4.14194 -0.491417,1.54445 -0.561619,2.9485 -0.702024,4.56316 -0.0702,0.77223 -0.210608,1.54446 -0.210608,2.31668 0,0.77222 0.0702,1.54446 0.421215,2.31668 0.210607,0.42122 0.491417,0.98284 0.842429,1.33385 0.0702,0 0.842429,0.70202 0.491417,0.14041 l 0.421215,0.42121 -0.210608,-0.14041 c -0.0702,0.35101 2.527288,1.75506 2.948503,1.89547 1.965666,0.63182 4.07174,-1.61466 5.33538,-2.94851 1.68486,-1.82526 3.08891,-3.93133 4.63336,-5.897 0.84243,-1.12324 3.51013,-3.51013 3.22931,-5.19498 z"
     style="font-style:normal;font-variant:normal;font-weight:normal;font-stretch:normal;font-size:medium;line-height:387.84732056px;font-family:Playlist;-inkscape-font-specification:Playlist;letter-spacing:0px;word-spacing:0px;fill:#000000;fill-opacity:1;stroke:none;stroke-width:0.26458332px;stroke-linecap:butt;stroke-linejoin:miter;stroke-opacity:1"
     id="path4719" />
  <path
     d="m 132.60007,151.26832 c 0,0.0702 0,0.0702 -0.0702,0 v -0.0702 c -1.12324,-1.89547 -2.59749,0.70203 -3.22931,1.61466 -1.19344,1.61465 -2.31669,3.1591 -3.58033,4.63335 -1.05304,1.26365 -2.17627,2.52729 -3.0187,3.86114 0,0.1404 -0.14041,0.49141 -0.14041,0.49141 -0.2808,0.42122 -0.70202,0.77224 -1.05303,1.19345 -0.63182,0.63182 -1.26365,1.33385 -1.96567,1.96566 -1.05304,0.98284 -6.95005,6.52884 -7.72227,2.94851 -0.42122,-1.75506 0.14041,-3.93134 0.49142,-5.6162 0.2106,-0.91263 0.42121,-1.75506 0.56162,-2.66769 0.1404,-0.70202 -0.0702,-1.40405 0.2808,-2.10607 0.21062,-0.42122 0.28082,-0.35101 0.77223,-0.49142 l 1.19345,-0.42121 c 0.77222,-0.28081 1.54444,-0.56163 2.24647,-0.98284 1.05304,-0.63182 2.03587,-1.40405 2.9485,-2.17627 2.17628,-1.82527 4.49296,-4.00154 5.40559,-6.73944 0.49142,-1.54445 0.56162,-3.22931 -0.42121,-4.56316 -0.91263,-1.19344 -2.45709,-1.82525 -3.86113,-2.10607 -3.79094,-0.70202 -6.66923,1.47425 -8.84552,4.35255 -2.66769,3.29952 -4.56315,7.37126 -5.47578,11.51321 -0.49142,2.03586 -0.77223,4.07173 -1.12324,6.17781 -0.35101,2.10607 -0.56163,4.07174 0.56162,6.0374 -0.0702,-0.70202 -0.21061,-1.33384 -0.21061,-1.96566 0,-0.35102 0.1404,-0.70203 0.1404,-0.98283 0,-0.14041 -0.1404,-0.56163 -0.1404,-0.77223 0,-0.63182 0.1404,-1.12324 0.28081,-1.75507 0.0702,-0.63181 0,-1.26364 0.0702,-1.89546 0.0702,-0.70203 0.35101,-1.26364 0.63181,-1.89547 0.21061,-0.56162 0.28082,-1.05304 0.49142,-1.61465 0.21061,-0.49142 0.35101,-1.05304 0.56162,-1.61466 0.0702,-0.35101 0.42122,-0.77222 0.63182,-1.19344 -0.2106,0.63182 -0.63182,1.19344 -0.77223,1.75506 -0.2106,0.84243 -0.0702,1.75506 -0.1404,2.59749 -0.1404,0.91263 -0.42122,1.82527 -0.56162,2.8081 -0.1404,0.91263 -0.56162,1.75506 -0.70203,2.66769 -0.14039,0.84243 -0.42121,1.47426 -0.35101,2.31669 0,0.49141 0.0702,0.98282 0.14041,1.40404 0.0702,0.56162 0.42122,0.91263 0.77223,1.33385 1.19343,1.40404 2.8081,2.52729 4.63336,3.0187 1.26364,0.35102 2.38688,0.28081 3.58032,-0.35101 1.68486,-0.91263 3.15911,-2.31668 4.42276,-3.65052 1.19344,-1.33385 2.10607,-2.8081 3.15911,-4.21215 0.98282,-1.26365 2.17627,-2.45708 3.1591,-3.72073 l 3.79093,-4.91417 2.17628,-2.8783 c 0.35101,-0.42122 0.56162,-0.77223 0.28081,-1.33385 z m -17.4102,0.77223 c 0.0702,-0.14041 0.0702,-0.21061 0.0702,-0.21061 1.05304,-2.24648 1.82527,-4.63336 3.29952,-6.80964 l 1.26365,-1.68485 c 0.2808,-0.35102 0.77222,-0.98284 1.26364,-1.12325 1.05304,-0.2106 1.33384,1.61466 1.26364,2.31669 l -0.28081,1.47425 c -0.0702,0.42122 0.0702,0.70202 0,1.05303 -0.1404,0.42122 -0.49141,0.63183 -0.70203,0.98284 l -1.19343,1.54445 c -1.61466,1.89546 -3.65053,3.51013 -5.89701,4.70356 0.35102,-0.77222 0.56162,-1.54445 0.91263,-2.24647 z"
     style="font-style:normal;font-variant:normal;font-weight:normal;font-stretch:normal;font-size:medium;line-height:387.84732056px;font-family:Playlist;-inkscape-font-specification:Playlist;letter-spacing:0px;word-spacing:0px;fill:#000000;fill-opacity:1;stroke:none;stroke-width:0.26458332px;stroke-linecap:butt;stroke-linejoin:miter;stroke-opacity:1"
     id="path4721" />
  <path
     d="m 151.31232,120.94087 v -0.0702 c -0.35101,-2.9485 -4.77376,-3.65053 -6.80964,-1.89547 -1.05303,0.91263 -0.91263,1.82526 -0.91263,2.94851 -0.0702,1.96566 -0.70202,4.00153 -0.98283,5.9672 -1.40405,7.65206 -3.01871,15.30413 -4.84398,22.81579 -0.42121,1.75506 -1.05303,3.43992 -1.47424,5.19499 -0.28082,1.33384 -1.54446,4.91417 -0.42121,6.0374 1.75506,1.82527 3.36971,-4.00154 3.79092,-5.05458 2.10607,-5.8268 3.51012,-11.86421 5.4758,-17.69101 1.19343,-3.58032 2.31668,-7.16065 3.65052,-10.67077 0.70202,-1.82526 1.47425,-3.65053 2.10607,-5.47579 0.21061,-0.70202 0.35101,-1.33385 0.42122,-2.10607 z m -13.12786,46.96542 c 0,-0.49141 0.42122,-1.12323 0,-1.68485 -0.35101,-0.42122 -0.35101,-0.14041 -0.70202,-0.21061 -1.40405,-0.56162 -2.7379,-0.21061 -4.00154,0.42122 -1.61465,0.84243 -4.21215,3.72072 -3.22932,5.8268 0.28082,0.56161 1.54446,1.68486 2.03588,1.89546 1.33385,0.70203 2.03587,-0.2106 2.8783,-0.98283 0.98283,-0.91263 1.68485,-1.26365 2.17627,-2.38688 0.14041,-0.28081 1.82526,-2.87831 0.84243,-2.87831 z m 5.19498,-32.29311 v 0.0702 c -0.1404,2.10608 -0.49141,4.07174 -0.91263,6.17782 -0.35101,1.89546 -1.47425,3.65052 -1.96567,5.40559 0.28082,-1.12324 0.63183,-1.89546 0.77223,-3.22931 0.1404,-1.40405 0.56162,-2.87831 1.05303,-4.28236 0.42122,-1.33384 0.77223,-2.73789 1.05304,-4.14193 z m -2.9485,11.93441 c 0,-0.0702 0,-0.14041 0.0702,-0.28081 -0.0702,0.1404 -0.0702,0.21061 -0.0702,0.28081 z"
     style="font-style:normal;font-variant:normal;font-weight:normal;font-stretch:normal;font-size:medium;line-height:387.84732056px;font-family:Playlist;-inkscape-font-specification:Playlist;letter-spacing:0px;word-spacing:0px;fill:#000000;fill-opacity:1;stroke:none;stroke-width:0.26458332px;stroke-linecap:butt;stroke-linejoin:miter;stroke-opacity:1"
     id="path4723" />
  <path
     d="m 79.264366,2.4049083 v -0.0702 c -0.0702,-0.351012 -0.28081,-0.421214 -0.631822,-0.491417 -0.280809,-0.0702 -0.140405,0.351012 -0.421214,0.351012 -0.28081,0.0702 -1.053037,-0.0702 -1.333846,-0.0702 -1.755061,-0.140405 -3.510122,-0.0702 -5.265183,0.0702 -0.421215,0 -1.123239,0.140405 -1.474251,0.0702 -0.772227,-0.140405 -0.772227,-0.421215 -1.333846,-0.912632 -0.842429,-0.77222701 -2.246479,-1.47425101 -3.43992,-1.33384601 -0.561619,0.0702 -0.912631,0.140405 -1.263644,0.561619 -0.210607,0.28081 0,0.49141701 0,0.49141701 -0.140404,0.351013 -0.421214,0.84243 -0.702024,1.123239 -0.561619,0.702025 -0.491417,0.702025 -1.474251,0.982835 -0.982834,0.280809 -1.684859,0.491417 -2.667693,0.561619 -1.333846,0.0702 -2.59749,0.421215 -3.931336,0.702024 -0.912631,0.140405 -2.176276,0.140405 -3.018705,0.56162 -0.491417,0.210607 -0.702024,0.351012 -0.912631,0.842429 -0.84243,2.106073 2.03587,3.018705 3.580324,2.948502 1.123239,-0.0702 2.8783,-0.210607 3.861134,-0.631822 0.702024,-0.280809 1.123238,-0.561619 1.825264,-0.702024 -1.895467,3.9313357 -3.580325,7.9328747 -5.405588,11.9344137 -1.755062,3.931336 -3.72073,7.862673 -5.19498,11.934414 -0.631822,1.755061 -1.053037,3.580324 -1.825264,5.335385 -0.842429,1.755061 -1.614656,3.510122 -2.246478,5.335385 -1.053036,2.948502 -2.808097,6.318219 -1.404049,9.407126 -2.176275,0.702024 -4.492955,0.842429 -6.809636,1.263645 -0.842429,0.210607 -2.03587,0.140404 -2.808097,0.561619 -1.474251,0.772227 -0.982834,2.527287 0.28081,3.299514 1.684858,0.982834 4.773766,0.351012 6.528826,-0.210607 0.631822,-0.210608 1.123239,-0.56162 1.825263,-0.702025 1.123239,-0.140404 2.246478,-0.421214 3.369718,-0.561619 2.03587,-0.28081 3.580323,-0.772227 5.545991,-1.193441 l 3.650527,-0.772227 c 0.56162,-0.140405 0.982834,-0.491417 1.333847,-0.702025 0.351012,-0.140405 0.702024,-0.140405 1.263643,-0.210607 0.772227,0 3.229313,-0.28081 3.229313,-1.404049 0,-0.421214 -0.210608,-0.631822 -0.56162,-0.702024 -0.280809,-0.0702 -0.210607,0.351012 -0.491417,0.351012 -0.351012,0.0702 -0.982835,-0.0702 -1.333847,-0.0702 -3.299514,-0.210607 -6.669231,0.0702 -9.968745,0.421215 0.982834,-3.369717 2.106073,-6.739434 3.439919,-9.968746 0.84243,-2.176276 1.263644,-4.352551 2.176276,-6.458624 1.123239,-2.737895 2.246478,-5.47579 3.580324,-8.143482 1.193441,-2.386883 1.825264,-4.843968 3.018705,-7.160648 1.263643,-2.597491 2.457085,-5.124778 3.790931,-7.652066 0.702024,-1.4040487 1.755061,-3.0187047 2.176276,-4.5631577 0.0702,-0.421215 -0.421215,-0.56162 0.0702,-0.982834 0.210607,-0.140405 1.123239,-0.0702 1.404048,-0.140405 1.263644,-0.210608 2.527288,-0.491417 3.790931,-0.772227 1.333847,-0.28081 1.614657,-0.842429 2.737896,-0.912632 0.772226,-0.0702 3.650526,-0.280809 3.439919,-1.614656 z M 61.432948,15.602965 c -0.280809,0.56162 -0.561619,1.053037 -0.772226,1.614656 0.210607,-0.912631 0.140404,-1.825263 0.491417,-2.737894 0.280809,-0.772227 1.193441,-1.544454 1.684858,-2.31668 -0.421215,1.193441 -0.772227,2.31668 -1.404049,3.439918 z m -2.8783,3.931337 -0.982834,1.544454 c 0.351012,-0.84243 0.561619,-1.684859 0.982834,-2.527288 0.140405,-0.28081 0.421214,-0.631822 0.702024,-0.982835 -0.28081,0.631822 -0.351012,1.333847 -0.702024,1.965669 z"
     style="font-style:normal;font-variant:normal;font-weight:normal;font-stretch:normal;font-size:medium;line-height:387.84732056px;font-family:Playlist;-inkscape-font-specification:Playlist;letter-spacing:0px;word-spacing:0px;fill:#000000;fill-opacity:1;stroke:none;stroke-width:0.26458332px;stroke-linecap:butt;stroke-linejoin:miter;stroke-opacity:1"
     id="path4705" />
  <path
     d="m 77.527952,9.7059613 v -0.0702 c -0.351013,-1.333846 -2.176276,-1.123238 -3.088908,-1.053036 -0.491417,0.0702 -1.193441,0.28081 -1.474251,0.702024 -0.421214,0.56162 -0.0702,0.631822 -0.0702,0.9126317 -0.210608,0.912631 -2.808098,8.424293 -0.982834,8.283888 -0.491417,1.123239 -0.631822,2.246477 -1.053037,3.299514 -0.140405,0.561619 -1.333847,2.667692 -0.772227,3.229311 0.84243,0.84243 1.825264,-1.333846 2.176276,-1.825263 1.263643,-2.03587 2.246477,-3.931336 2.948502,-6.177814 0.351012,-1.123239 1.123238,-2.176275 1.474251,-3.299514 0.280809,-1.053036 1.053037,-2.8783 0.84243,-4.0015387 z"
     style="font-style:normal;font-variant:normal;font-weight:normal;font-stretch:normal;font-size:medium;line-height:387.84732056px;font-family:Playlist;-inkscape-font-specification:Playlist;letter-spacing:0px;word-spacing:0px;fill:#000000;fill-opacity:1;stroke:none;stroke-width:0.26458332px;stroke-linecap:butt;stroke-linejoin:miter;stroke-opacity:1"
     id="path4707" />
  <path
     d="m 118.14555,34.417218 c 0,0 0.0702,0.0702 0,-0.0702 -0.49142,-1.544453 -3.58033,2.667693 -3.93134,3.088907 -1.82526,2.176276 -3.65052,4.422754 -5.54599,6.528827 -0.77223,0.842429 -3.51012,4.633361 -4.84397,4.352551 -0.63183,-0.140405 -0.14041,-3.510122 -0.14041,-3.510122 -0.14041,0.140405 -0.2106,0.280809 -0.2808,0.421214 0.56161,-2.667692 2.17627,-5.826801 3.2995,-8.494494 1.19345,-3.018705 2.94851,-6.950041 2.03588,-10.319758 -1.05304,-3.861134 -5.05458,-1.895466 -6.95005,-0.0702 -0.70202,0.702025 -6.528818,8.283888 -6.458616,8.775305 l 1.404049,-1.895466 c -1.123239,1.755061 -2.176275,3.439919 -3.018705,5.19498 0.702025,-2.457085 1.404049,-4.984373 2.246478,-7.441458 0.631822,-1.684859 1.684858,-3.439919 2.176275,-5.19498 0.56162,-2.246479 -1.404048,-5.335385 -3.931336,-4.984373 -1.825263,0.210607 -3.369717,2.31668 -4.282348,3.790931 -1.123239,1.825264 -2.457085,3.510122 -3.580324,5.265183 -1.333847,2.176275 -2.457086,4.563158 -3.580325,6.809636 -0.982834,1.825263 -1.474251,3.931337 -2.527287,5.616195 0.140405,-0.772227 -0.140405,-1.333846 -0.140405,-2.035871 0,-0.631821 0.28081,-1.404049 0.421215,-2.035871 0.210607,-0.982834 0.772226,-1.825263 0.982834,-2.808097 0.140404,-0.491417 0,-0.702024 0.140404,-1.193441 0.0702,-0.351012 0.421215,-0.772227 0.631822,-1.053036 0.491417,-0.702025 1.123239,-1.333847 1.544454,-2.035872 0.0702,-0.140404 0.210607,-0.280809 0.210607,-0.421214 0.28081,-0.982834 -0.421215,-1.333846 -0.772227,-1.825263 -0.351012,-0.421215 -0.702024,-1.333846 -1.263643,-1.825263 -0.421215,-0.351012 -1.123239,-0.772227 -1.614656,-0.56162 -0.631822,0.28081 -0.351012,0.631822 -0.56162,0.982834 -0.280809,0.702024 -0.842429,1.263644 -1.193441,1.895466 -0.56162,1.193441 -1.053037,2.386882 -1.404049,3.580324 -0.842429,2.457085 -1.825263,4.984373 -1.684859,7.581863 0.0702,1.965668 -0.491416,3.580324 0.982834,5.335385 0.702025,0.84243 3.43992,2.667693 4.141944,1.404049 0.0702,-0.140405 0.140405,-0.702024 0.140405,-0.912632 0.210608,-0.702025 0.702025,-1.333847 0.982834,-2.035871 0.702025,-1.404048 1.333846,-2.878299 2.106073,-4.35255 1.965669,-3.72073 3.43992,-7.301053 5.7566,-10.881378 0.702024,-1.053036 1.544453,-2.106073 2.386882,-3.088907 0.210608,-0.210607 1.263645,-1.684859 1.40405,-1.614656 1.123239,0.0702 -1.123239,4.352551 -1.333847,5.124778 -0.912632,2.386882 -2.527288,4.843968 -2.808097,7.371255 -0.0702,0.842429 0.140405,1.123239 -0.0702,1.895466 -0.210607,0.84243 -0.56162,1.755061 -0.491417,2.667693 0.140405,0.842429 0.491417,1.614656 1.123239,2.176275 2.246477,2.176276 3.15911,-0.351012 4.141944,-2.03587 1.193441,-1.965668 2.31668,-4.773766 3.790931,-6.248017 2.316678,-2.246478 3.510118,-5.265183 5.826798,-7.441458 -0.35101,0.772226 -2.31668,5.545992 -2.24648,5.616195 0.14041,-0.140405 0.21061,-0.28081 0.28082,-0.421215 -0.28082,0.772227 -0.56163,1.474251 -0.77224,2.176275 -0.1404,-0.0702 0.14041,-0.631821 0.0702,-0.631821 -0.42122,-0.0702 -1.684854,3.861133 -1.755056,4.141943 -0.491418,1.404049 -0.702025,2.737895 -0.702025,4.212146 0,1.333846 0,2.667692 0.210607,4.071742 0.140405,0.842429 0.351013,1.75506 0.772222,2.527287 0.140407,0.351012 1.123242,1.333846 1.123242,1.193441 0.0702,0.140405 0.0702,0.28081 0.21061,0.351012 l -0.0702,-0.0702 c -0.1404,0.56162 2.80809,1.544455 3.29951,1.474252 2.45709,-0.0702 4.91417,-3.369717 6.24802,-5.124778 1.96567,-2.386883 3.72073,-4.984373 5.47579,-7.51166 0.91263,-1.333847 2.8081,-3.650527 2.38689,-5.47579 z M 92.942872,29.783857 h 0.0702 c -0.0702,0.0702 -0.140405,0.210608 -0.140405,0.210608 -0.84243,1.75506 -1.263645,3.790931 -1.965669,5.686397 -0.561619,1.404048 -1.263644,3.088907 -1.404049,4.633361 0,-1.614657 0.491417,-3.510122 0.982834,-4.914171 0.56162,-1.684858 1.404049,-3.299514 2.106074,-4.91417 0.28081,-0.56162 1.965668,-4.91417 1.684858,-6.03741 0.421215,0.982835 -0.842429,4.282349 -1.263643,5.335385 v -0.0702 z"
     style="font-style:normal;font-variant:normal;font-weight:normal;font-stretch:normal;font-size:medium;line-height:387.84732056px;font-family:Playlist;-inkscape-font-specification:Playlist;letter-spacing:0px;word-spacing:0px;fill:#000000;fill-opacity:1;stroke:none;stroke-width:0.26458332px;stroke-linecap:butt;stroke-linejoin:miter;stroke-opacity:1"
     id="path4709" />
  <path
     style="fill:#ffff00;fill-rule:evenodd;stroke:none;stroke-width:0.26458332px;stroke-linecap:butt;stroke-linejoin:miter;stroke-opacity:1"
     d="M 17.642516,46.953587 C 37.622798,73.748362 5.8140553,43.11044 2.5964909,42.90106 1.633364,41.105816 5.7150779,34.44202 7.7513686,34.505552 c 2.0362893,0.06353 8.6733024,10.81483 9.8911474,12.448035 z"
     id="path4661" />
  <path
     style="fill:#ffff00;fill-rule:evenodd;stroke:none;stroke-width:0.26458332px;stroke-linecap:butt;stroke-linejoin:miter;stroke-opacity:1"
     d="M 16.337925,69.009589 C 49.432698,73.69016 5.2800739,74.702231 2.8657533,76.839427 0.91285157,76.259178 -0.94463239,68.668633 0.53433426,67.267501 2.0132995,65.86637 14.320719,68.724296 16.337925,69.009589 Z"
     id="path4663" />
  <path
     style="fill:#ffff00;fill-rule:evenodd;stroke:none;stroke-width:0.26458332px;stroke-linecap:butt;stroke-linejoin:miter;stroke-opacity:1"
     d="M 20.05328,92.123838 C 43.642062,68.443866 17.979176,104.3868 18.242044,107.60045 16.606743,108.81547 9.4181957,105.75095 9.1835985,103.72721 8.9489998,101.70348 18.615488,93.567185 20.05328,92.123838 Z"
     id="path4665" />
  <path
     id="path4695"
     d="m 129.73343,46.953587 c -19.98028,26.794775 11.82846,-3.843147 15.04603,-4.052527 0.96313,-1.795244 -3.11859,-8.45904 -5.15488,-8.395508 -2.03629,0.06353 -8.6733,10.81483 -9.89115,12.448035 z"
     style="fill:#ffff00;fill-rule:evenodd;stroke:none;stroke-width:0.26458332px;stroke-linecap:butt;stroke-linejoin:miter;stroke-opacity:1" />
  <path
     id="path4697"
     d="m 131.03803,69.009589 c -33.094778,4.680571 11.05785,5.692642 13.47217,7.829838 1.9529,-0.580249 3.81038,-8.170794 2.33142,-9.571926 -1.47897,-1.401131 -13.78639,1.456795 -15.80359,1.742088 z"
     style="fill:#ffff00;fill-rule:evenodd;stroke:none;stroke-width:0.26458332px;stroke-linecap:butt;stroke-linejoin:miter;stroke-opacity:1" />
  <path
     id="path4699"
     d="m 127.32267,92.123838 c -23.58878,-23.679972 2.0741,12.262962 1.81124,15.476612 1.6353,1.21502 8.82384,-1.8495 9.05844,-3.87324 0.2346,-2.02373 -9.43189,-10.160025 -10.86968,-11.603372 z"
     style="fill:#ffff00;fill-rule:evenodd;stroke:none;stroke-width:0.26458332px;stroke-linecap:butt;stroke-linejoin:miter;stroke-opacity:1" />
</svg>
