<svg width="50" height="50" viewBox="0 0 50 50" fill="none" xmlns="http://www.w3.org/2000/svg">
<g clip-path="url(#clip0)">
<path fill-rule="evenodd" clip-rule="evenodd" d="M50.1223 25C50.1223 31.7871 50.0929 32.6367 49.9755 35.3027C49.8581 37.959 49.4276 39.7754 48.8111 41.3672C47.5098 44.7266 44.8483 47.3828 41.4824 48.6816C39.8973 49.2969 38.0675 49.7266 35.4061 49.8438C32.7348 49.9609 31.8836 49.9902 25.0832 49.9902C18.2828 49.9902 17.4315 49.9609 14.7603 49.8438C12.0988 49.7266 10.2789 49.2969 8.68396 48.6816C7.02055 48.0566 5.50392 47.0703 4.25147 45.8008C2.97946 44.5508 1.9912 43.0469 1.35519 41.3672C0.738753 39.7852 0.308225 37.959 0.190808 35.3027C0.0733911 32.6367 0.0440369 31.7871 0.0440369 25C0.0440369 18.2129 0.0733911 17.3633 0.200593 14.6875C0.318009 12.0312 0.748538 10.2148 1.36498 8.62305C1.9912 6.96289 2.97946 5.44922 4.25147 4.19922C5.50392 2.91992 7.01077 1.94336 8.69374 1.30859C10.2789 0.693359 12.1086 0.263672 14.7701 0.146484C17.4413 0.0292969 18.2926 0 25.093 0C31.8933 0 32.7446 0.0292969 35.4256 0.15625C38.0871 0.273438 39.907 0.703125 41.5019 1.31836C43.1654 1.94336 44.682 2.92969 45.9344 4.19922C47.2162 5.44922 48.1947 6.95312 48.8307 8.63281C49.4472 10.2148 49.8777 12.041 49.9951 14.6973C50.1125 17.3633 50.1223 18.2129 50.1223 25ZM45.6311 25.0195C45.6311 18.3496 45.6018 17.5586 45.4843 14.9219C45.3767 12.4902 44.9657 11.1621 44.6233 10.2832C44.2221 9.19922 43.5861 8.22266 42.7544 7.41211C41.952 6.58203 40.9638 5.94727 39.8777 5.54688C38.9971 5.20508 37.6761 4.79492 35.2299 4.6875C32.5978 4.57031 31.8053 4.54102 25.1125 4.54102C18.4295 4.54102 17.637 4.57031 14.9951 4.6875C12.5587 4.79492 11.228 5.20508 10.3474 5.54688C9.26126 5.94727 8.28278 6.58203 7.47065 7.41211C6.62916 8.21289 5.99316 9.19922 5.59198 10.2832C5.24952 11.1621 4.83856 12.4805 4.73092 14.9219C4.61351 17.5488 4.58415 18.3496 4.58415 25.0195C4.58415 31.6895 4.61351 32.4805 4.73092 35.1172C4.83856 37.5488 5.24952 38.877 5.59198 39.7559C5.99316 40.8398 6.62916 41.8164 7.46087 42.627C8.26321 43.457 9.25147 44.0918 10.3376 44.4922C11.2182 44.834 12.5391 45.2441 14.9853 45.3516C17.6174 45.4688 18.4198 45.498 25.1027 45.498C31.7857 45.498 32.5783 45.4688 35.2202 45.3516C37.6566 45.2441 38.9873 44.834 39.8679 44.4922C42.0499 43.6523 43.7818 41.9238 44.6233 39.7461C44.9657 38.8672 45.3767 37.5488 45.4843 35.1074C45.6018 32.4707 45.6311 31.6895 45.6311 25.0195Z" fill="#17C0C2"/>
<path fill-rule="evenodd" clip-rule="evenodd" d="M37.9599 25C37.9599 32.0898 32.1966 37.8418 25.0929 37.8418C17.9892 37.8418 12.226 32.0898 12.226 25C12.226 17.9102 17.9892 12.1582 25.0929 12.1582C32.1966 12.1582 37.9599 17.9102 37.9599 25ZM25.0929 33.3301C29.7015 33.3301 33.4393 29.5996 33.4393 25C33.4393 20.4004 29.7015 16.6699 25.0929 16.6699C20.4843 16.6699 16.7466 20.4004 16.7466 25C16.7466 29.5996 20.4843 33.3301 25.0929 33.3301Z" fill="#17C0C2"/>
<path d="M41.4726 11.6504C41.4726 13.3057 40.1282 14.6484 38.4687 14.6484C36.8102 14.6484 35.4648 13.3057 35.4648 11.6504C35.4648 9.99414 36.8102 8.65234 38.4687 8.65234C40.1282 8.65234 41.4726 9.99414 41.4726 11.6504Z" fill="#17C0C2"/>
</g>
<defs>
<clipPath id="clip0">
<rect width="50" height="50" fill="white"/>
</clipPath>
</defs>
</svg>
