<svg version="1.2" baseProfile="tiny-ps" xmlns="http://www.w3.org/2000/svg" viewBox="0 0 679 224" width="679" height="224">
	<title>logo_EVEN</title>
	<style>
		tspan { white-space:pre }
		.shp0 { fill: #17c0c2 } 
		.shp1 { display: none;fill: #22967f } 
	</style>
	<path id="even " fill="#f1f2f3" aria-label="even"  d="M149.58 158.11C127.78 158.11 111.32 146.56 105.54 127.67L201.63 109C200.52 76.11 176.94 53.22 145.58 53.22C111.99 53.22 87.74 77.89 87.74 112.56C87.74 147.22 112.88 172.11 149.36 172.11C167.82 172.11 183.84 165.44 194.29 153L185.4 142.78C176.72 153 164.04 158.11 149.58 158.11ZM145.58 66.78C167.16 66.78 182.5 81.22 185.84 100.33L103.32 116.33C103.09 114.78 103.09 113.22 103.09 111.45C103.09 85 120.67 66.78 145.58 66.78ZM314.41 54.11L270.14 153.67L226.32 54.11L209.86 54.11L261.69 171L277.93 171L329.98 54.11ZM398.94 158.11C377.14 158.11 360.68 146.56 354.89 127.67L450.99 109C449.88 76.11 426.3 53.22 394.93 53.22C361.34 53.22 337.1 77.89 337.1 112.56C337.1 147.22 362.23 172.11 398.71 172.11C417.18 172.11 433.19 165.44 443.65 153L434.75 142.78C426.07 153 413.4 158.11 398.94 158.11ZM394.93 66.78C416.51 66.78 431.86 81.22 435.19 100.33L352.67 116.33C352.45 114.78 352.45 113.22 352.45 111.45C352.45 85 370.02 66.78 394.93 66.78ZM542.85 53.22C522.61 53.22 506.82 61.45 498.37 75.67L498.37 54.11L483.24 54.11L483.24 171L499.03 171L499.03 109.67C499.03 83 514.83 67.45 539.96 67.45C562.21 67.45 575.11 80.11 575.11 104.78L575.11 171L590.9 171L590.9 103.22C590.9 69.67 571.33 53.22 542.85 53.22Z" />
	<path id="Forma 3" class="shp0" d="M1 136L18 136L18 223L1 223L1 136Z" />
	<path id="Forma 3 copy" class="shp0" d="M0.96 206.96L89 206.96L89 223.96L0.96 223.96L0.96 206.96Z" />
	<path id="Forma 2 copy" class="shp1" d="M677.51 -1.53L695.07 -1.53L695.07 68.64L677.51 68.64L677.51 -1.53ZM607.27 -19.08L695.07 -19.08L695.07 -1.53L607.27 -1.53L607.27 -19.08Z" />
	<path id="Forma 3 copy 2" class="shp0" d="M661 0.96L678 0.96L678 87.96L661 87.96L661 0.96Z" />
	<path id="Forma 3 copy 3" class="shp0" d="M590 0L678.04 0L678.04 17L590 17L590 0Z" />
</svg>