<svg id='cog' width="150" height="150" viewBox="0 0 150 150" xmlns="http://www.w3.org/2000/svg">
<path fill="none" stroke="#e63946" stroke-width="2px" d="M11.7188 30.4688C9.14062 30.4688 7.03125 28.3594 7.03125 25.7812V11.7188C7.03125 9.14062 9.14062 7.03125 11.7188 7.03125H44.5312C47.1094 7.03125 49.2188 9.14062 49.2188 11.7188V25.7812C49.2188 28.3594 47.1094 30.4688 44.5312 30.4688H39.8438V34.1953C39.8438 37.3125 37.3125 39.8438 34.1953 39.8438C32.6719 39.8438 31.2656 39.2578 30.1875 38.1797L22.4766 30.4688H11.7188ZM35.1562 21.0938H39.8438V16.4062H35.1562V21.0938ZM25.7812 21.0938H30.4688V16.4062H25.7812V21.0938ZM16.4062 21.0938H21.0938V16.4062H16.4062V21.0938Z"/>
<path fill="none" stroke="#e63946" stroke-width="2px" d="M142.969 11.7188V25.7812C142.969 28.3594 140.859 30.4688 138.281 30.4688H122.836L115.125 38.1797C114.047 39.2578 112.641 39.8438 111.117 39.8438C108 39.8438 105.469 37.3125 105.469 34.1953V30.4688H86.7188V34.1953C86.7188 37.3125 84.1875 39.8438 81.0703 39.8438C79.5469 39.8438 78.1406 39.2578 77.0625 38.1797L69.3516 30.4688H58.5938C56.0156 30.4688 53.9062 28.3594 53.9062 25.7812V11.7188C53.9062 9.14062 56.0156 7.03125 58.5938 7.03125H138.281C140.859 7.03125 142.969 9.14062 142.969 11.7188ZM82.0312 16.4062H65.625V21.0938H82.0312V16.4062ZM114.844 16.4062H86.7188V21.0938H114.844V16.4062ZM124.219 16.4062H119.531V21.0938H124.219V16.4062ZM133.594 16.4062H128.906V21.0938H133.594V16.4062Z"/>
<path  d="M44.3438 72.6562H44.5312V60.9375C44.5312 59.6484 43.4766 58.5938 42.1875 58.5938H37.4297C36.9141 59.2734 36.3281 59.8828 35.6719 60.4453C40.2656 62.8359 43.5703 67.3359 44.3438 72.6562Z" fill="#17C0C2"/>
<path d="M28.125 63.2812C22.4766 63.2812 17.7422 67.3125 16.6406 72.6562H39.6094C38.5078 67.3125 33.7734 63.2812 28.125 63.2812Z" fill="#17C0C2"/>
<path d="M18.8203 58.5938H14.0625C12.7734 58.5938 11.7188 59.6484 11.7188 60.9375V72.6562H11.9062C12.6797 67.3359 15.9844 62.8359 20.5781 60.4453C19.9219 59.9063 19.3359 59.2734 18.8203 58.5938Z" fill="#17C0C2"/>
<path d="M42.1875 128.906H14.0625C12.7734 128.906 11.7188 129.961 11.7188 131.25V142.969H44.5312V131.25C44.5312 129.961 43.4766 128.906 42.1875 128.906Z" fill="#17C0C2"/>
<path d="M28.125 58.5938C24.2344 58.5938 21.0938 55.4531 21.0938 51.5625C21.0938 47.6719 24.2344 44.5312 28.125 44.5312C32.0156 44.5312 35.1562 47.6719 35.1562 51.5625C35.1562 55.4531 32.0156 58.5938 28.125 58.5938Z" fill="#17C0C2"/>
<path d="M91.2187 72.6562H91.4062V60.9375C91.4062 59.6484 90.3516 58.5938 89.0625 58.5938H84.3047C83.7891 59.2734 83.2031 59.8828 82.5469 60.4453C87.1406 62.8359 90.4453 67.3359 91.2187 72.6562Z" fill="#17C0C2"/>
<path d="M67.4531 60.4453C66.7969 59.9063 66.2109 59.2734 65.6953 58.5938H60.9375C59.6484 58.5938 58.5938 59.6484 58.5938 60.9375V72.6562H58.7812C59.5547 67.3359 62.8594 62.8359 67.4531 60.4453Z" fill="#17C0C2"/>
<path d="M63.5156 72.6562H86.4844C85.3828 67.3125 80.6484 63.2812 75 63.2812C69.3516 63.2812 64.6172 67.3125 63.5156 72.6562Z" fill="#17C0C2"/>
<path d="M75 58.5938C71.1094 58.5938 67.9688 55.4531 67.9688 51.5625C67.9688 47.6719 71.1094 44.5312 75 44.5312C78.8906 44.5312 82.0312 47.6719 82.0312 51.5625C82.0312 55.4531 78.8906 58.5938 75 58.5938Z" fill="#17C0C2"/>
<path d="M75 114.844C71.1094 114.844 67.9688 111.703 67.9688 107.812C67.9688 103.922 71.1094 100.781 75 100.781C78.8906 100.781 82.0312 103.922 82.0312 107.812C82.0312 111.703 78.8906 114.844 75 114.844Z" fill="#17C0C2"/>
<path d="M121.875 58.5938C117.984 58.5938 114.844 55.4531 114.844 51.5625C114.844 47.6719 117.984 44.5312 121.875 44.5312C125.766 44.5312 128.906 47.6719 128.906 51.5625C128.906 55.4531 125.766 58.5938 121.875 58.5938Z" fill="#17C0C2"/>
<path d="M110.391 72.6562H133.359C132.258 67.3125 127.523 63.2812 121.875 63.2812C116.227 63.2812 111.492 67.3125 110.391 72.6562Z" fill="#17C0C2"/>
<path d="M7.03125 131.25C7.03125 127.617 9.79687 124.664 13.3125 124.289C14.8594 120.984 17.4375 118.336 20.5781 116.695C18.0469 114.563 16.4062 111.375 16.4062 107.812C16.4062 101.344 21.6562 96.0938 28.125 96.0938C34.5938 96.0938 39.8438 101.344 39.8438 107.812C39.8438 111.375 38.2031 114.563 35.6719 116.695C38.8125 118.336 41.3906 120.984 42.9375 124.289C46.4531 124.664 49.2188 127.617 49.2188 131.25V142.969H53.9062V131.25C53.9062 127.617 56.6719 124.664 60.1875 124.289C61.7344 120.984 64.3125 118.336 67.4531 116.695C64.9219 114.563 63.2812 111.375 63.2812 107.812C63.2812 101.344 68.5312 96.0938 75 96.0938C81.4688 96.0938 86.7188 101.344 86.7188 107.812C86.7188 111.375 85.0781 114.563 82.5469 116.695C85.6875 118.336 88.2656 120.984 89.8125 124.289C93.3281 124.664 96.0938 127.617 96.0938 131.25V142.969H100.781V131.25C100.781 127.617 103.547 124.664 107.062 124.289C108.609 120.984 111.188 118.336 114.328 116.695C111.797 114.563 110.156 111.375 110.156 107.812C110.156 101.344 115.406 96.0938 121.875 96.0938C128.344 96.0938 133.594 101.344 133.594 107.812C133.594 111.375 131.953 114.563 129.422 116.695C132.562 118.336 135.141 120.984 136.688 124.289C140.203 124.664 142.969 127.617 142.969 131.25V77.3438H7.03125V131.25Z" fill="#17C0C2"/>
<path d="M138.094 72.6562H138.281V60.9375C138.281 59.6484 137.227 58.5938 135.937 58.5938H131.18C130.664 59.2734 130.078 59.8828 129.422 60.4453C134.016 62.8359 137.32 67.3359 138.094 72.6562Z" fill="#17C0C2"/>
<path d="M107.813 58.5938C106.523 58.5938 105.469 59.6484 105.469 60.9375V72.6562H105.656C106.43 67.3359 109.734 62.8359 114.328 60.4453C113.672 59.9063 113.086 59.2734 112.57 58.5938H107.813Z" fill="#17C0C2"/>
<path d="M121.875 114.844C117.984 114.844 114.844 111.703 114.844 107.812C114.844 103.922 117.984 100.781 121.875 100.781C125.766 100.781 128.906 103.922 128.906 107.812C128.906 111.703 125.766 114.844 121.875 114.844Z" fill="#17C0C2"/>
<path d="M28.125 114.844C24.2344 114.844 21.0938 111.703 21.0938 107.812C21.0938 103.922 24.2344 100.781 28.125 100.781C32.0156 100.781 35.1562 103.922 35.1562 107.812C35.1562 111.703 32.0156 114.844 28.125 114.844Z" fill="#17C0C2"/>
<path d="M89.0625 128.906H60.9375C59.6484 128.906 58.5938 129.961 58.5938 131.25V142.969H91.4062V131.25C91.4062 129.961 90.3516 128.906 89.0625 128.906Z" fill="#17C0C2"/>
<path d="M18.75 124.219H37.5C35.3203 121.336 31.875 119.531 28.125 119.531C24.375 119.531 20.9297 121.336 18.75 124.219Z" fill="#17C0C2"/>
<path d="M65.625 124.219H84.375C82.1953 121.336 78.75 119.531 75 119.531C71.25 119.531 67.8047 121.336 65.625 124.219Z" fill="#17C0C2"/>
<path d="M112.5 124.219H131.25C129.07 121.336 125.625 119.531 121.875 119.531C118.125 119.531 114.68 121.336 112.5 124.219Z" fill="#17C0C2"/>
<path d="M135.938 128.906H107.812C106.523 128.906 105.469 129.961 105.469 131.25V142.969H138.281V131.25C138.281 129.961 137.227 128.906 135.938 128.906Z" fill="#17C0C2"/>
</svg>
