<svg version="1.2" baseProfile="tiny-ps" xmlns="http://www.w3.org/2000/svg" viewBox="0 0 64 64" width="64" height="64">
	<title>reuniao-de-grupo-svg</title>
	<style>
		tspan { white-space:pre }
		.shp0 { fill: #e63946 } 
		.shp1 { fill: #17c0c2 } 
	</style>
	<g id="Layer">
		<path id="Layer" fill-rule="evenodd" class="shp0" d="M5 13C3.9 13 3 12.1 3 11L3 5C3 3.9 3.9 3 5 3L19 3C20.1 3 21 3.9 21 5L21 11C21 12.1 20.1 13 19 13L17 13L17 14.59C17 15.92 15.92 17 14.59 17C13.94 17 13.34 16.75 12.88 16.29L9.59 13L5 13ZM15 9L17 9L17 7L15 7L15 9ZM11 9L13 9L13 7L11 7L11 9ZM7 9L9 9L9 7L7 7L7 9Z" />
		<path id="Layer" fill-rule="evenodd" class="shp0" d="M61 5L61 11C61 12.1 60.1 13 59 13L52.41 13L49.12 16.29C48.66 16.75 48.06 17 47.41 17C46.08 17 45 15.92 45 14.59L45 13L37 13L37 14.59C37 15.92 35.92 17 34.59 17C33.94 17 33.34 16.75 32.88 16.29L29.59 13L25 13C23.9 13 23 12.1 23 11L23 5C23 3.9 23.9 3 25 3L59 3C60.1 3 61 3.9 61 5ZM35 7L28 7L28 9L35 9L35 7ZM49 7L37 7L37 9L49 9L49 7ZM53 7L51 7L51 9L53 9L53 7ZM57 7L55 7L55 9L57 9L57 7Z" />
		<path id="Layer" class="shp1" d="M18.92 31L19 31L19 26C19 25.45 18.55 25 18 25L15.97 25C15.75 25.29 15.5 25.55 15.22 25.79C17.18 26.81 18.59 28.73 18.92 31Z" />
		<path id="Layer" class="shp1" d="M12 27C9.59 27 7.57 28.72 7.1 31L16.9 31C16.43 28.72 14.41 27 12 27Z" />
		<path id="Layer" class="shp1" d="M8.03 25L6 25C5.45 25 5 25.45 5 26L5 31L5.08 31C5.41 28.73 6.82 26.81 8.78 25.79C8.5 25.56 8.25 25.29 8.03 25Z" />
		<path id="Layer" class="shp1" d="M18 55L6 55C5.45 55 5 55.45 5 56L5 61L19 61L19 56C19 55.45 18.55 55 18 55Z" />
		<path id="Layer" class="shp1" d="M12 25C10.34 25 9 23.66 9 22C9 20.34 10.34 19 12 19C13.66 19 15 20.34 15 22C15 23.66 13.66 25 12 25Z" />
		<path id="Layer" class="shp1" d="M38.92 31L39 31L39 26C39 25.45 38.55 25 38 25L35.97 25C35.75 25.29 35.5 25.55 35.22 25.79C37.18 26.81 38.59 28.73 38.92 31Z" />
		<path id="Layer" class="shp1" d="M28.78 25.79C28.5 25.56 28.25 25.29 28.03 25L26 25C25.45 25 25 25.45 25 26L25 31L25.08 31C25.41 28.73 26.82 26.81 28.78 25.79L28.78 25.79Z" />
		<path id="Layer" class="shp1" d="M27.1 31L36.9 31C36.43 28.72 34.41 27 32 27C29.59 27 27.57 28.72 27.1 31Z" />
		<path id="Layer" class="shp1" d="M32 25C30.34 25 29 23.66 29 22C29 20.34 30.34 19 32 19C33.66 19 35 20.34 35 22C35 23.66 33.66 25 32 25Z" />
		<path id="Layer" class="shp1" d="M32 49C30.34 49 29 47.66 29 46C29 44.34 30.34 43 32 43C33.66 43 35 44.34 35 46C35 47.66 33.66 49 32 49Z" />
		<path id="Layer" class="shp1" d="M52 25C50.34 25 49 23.66 49 22C49 20.34 50.34 19 52 19C53.66 19 55 20.34 55 22C55 23.66 53.66 25 52 25Z" />
		<path id="Layer" class="shp1" d="M47.1 31L56.9 31C56.43 28.72 54.41 27 52 27C49.59 27 47.57 28.72 47.1 31Z" />
		<path id="Layer" class="shp1" d="M3 56C3 54.45 4.18 53.19 5.68 53.03C6.34 51.62 7.44 50.49 8.78 49.79C7.7 48.88 7 47.52 7 46C7 43.24 9.24 41 12 41C14.76 41 17 43.24 17 46C17 47.52 16.3 48.88 15.22 49.79C16.56 50.49 17.66 51.62 18.32 53.03C19.82 53.19 21 54.45 21 56L21 61L23 61L23 56C23 54.45 24.18 53.19 25.68 53.03C26.34 51.62 27.44 50.49 28.78 49.79C27.7 48.88 27 47.52 27 46C27 43.24 29.24 41 32 41C34.76 41 37 43.24 37 46C37 47.52 36.3 48.88 35.22 49.79C36.56 50.49 37.66 51.62 38.32 53.03C39.82 53.19 41 54.45 41 56L41 61L43 61L43 56C43 54.45 44.18 53.19 45.68 53.03C46.34 51.62 47.44 50.49 48.78 49.79C47.7 48.88 47 47.52 47 46C47 43.24 49.24 41 52 41C54.76 41 57 43.24 57 46C57 47.52 56.3 48.88 55.22 49.79C56.56 50.49 57.66 51.62 58.32 53.03C59.82 53.19 61 54.45 61 56L61 33L3 33L3 56Z" />
		<path id="Layer" class="shp1" d="M58.92 31L59 31L59 26C59 25.45 58.55 25 58 25L55.97 25C55.75 25.29 55.5 25.55 55.22 25.79C57.18 26.81 58.59 28.73 58.92 31Z" />
		<path id="Layer" class="shp1" d="M46 25C45.45 25 45 25.45 45 26L45 31L45.08 31C45.41 28.73 46.82 26.81 48.78 25.79C48.5 25.56 48.25 25.29 48.03 25L46 25Z" />
		<path id="Layer" class="shp1" d="M52 49C50.34 49 49 47.66 49 46C49 44.34 50.34 43 52 43C53.66 43 55 44.34 55 46C55 47.66 53.66 49 52 49Z" />
		<path id="Layer" class="shp1" d="M12 49C10.34 49 9 47.66 9 46C9 44.34 10.34 43 12 43C13.66 43 15 44.34 15 46C15 47.66 13.66 49 12 49Z" />
		<path id="Layer" class="shp1" d="M38 55L26 55C25.45 55 25 55.45 25 56L25 61L39 61L39 56C39 55.45 38.55 55 38 55Z" />
		<path id="Layer" class="shp1" d="M8 53L16 53C15.07 51.77 13.6 51 12 51C10.4 51 8.93 51.77 8 53L8 53Z" />
		<path id="Layer" class="shp1" d="M28 53L36 53C35.07 51.77 33.6 51 32 51C30.4 51 28.93 51.77 28 53L28 53Z" />
		<path id="Layer" class="shp1" d="M48 53L56 53C55.07 51.77 53.6 51 52 51C50.4 51 48.93 51.77 48 53L48 53Z" />
		<path id="Layer" class="shp1" d="M58 55L46 55C45.45 55 45 55.45 45 56L45 61L59 61L59 56C59 55.45 58.55 55 58 55Z" />
	</g>
</svg>