<svg version="1.2" baseProfile="tiny-ps" xmlns="http://www.w3.org/2000/svg" viewBox="0 0 123 46" width="123" height="46">
	<title>Novo Projeto</title>
	<style>
		tspan { white-space:pre }
		.shp0 { fill: #22967f } 
	</style>
	<path id="even " fill="#f1f2f3" aria-label="even"  d="M29.31 30.8C25.59 30.8 22.78 28.82 21.79 25.59L38.2 22.4C38.01 16.77 33.99 12.86 28.63 12.86C22.89 12.86 18.75 17.08 18.75 23.01C18.75 28.93 23.04 33.19 29.27 33.19C32.43 33.19 35.16 32.05 36.95 29.92L35.43 28.17C33.95 29.92 31.78 30.8 29.31 30.8ZM28.63 15.18C32.31 15.18 34.94 17.65 35.51 20.92L21.41 23.65C21.37 23.39 21.37 23.12 21.37 22.82C21.37 18.29 24.37 15.18 28.63 15.18ZM57.47 13.01L49.91 30.04L42.42 13.01L39.61 13.01L48.46 33L51.24 33L60.13 13.01ZM71.91 30.8C68.19 30.8 65.37 28.82 64.39 25.59L80.8 22.4C80.61 16.77 76.58 12.86 71.23 12.86C65.49 12.86 61.35 17.08 61.35 23.01C61.35 28.93 65.64 33.19 71.87 33.19C75.03 33.19 77.76 32.05 79.55 29.92L78.03 28.17C76.55 29.92 74.38 30.8 71.91 30.8ZM71.23 15.18C74.91 15.18 77.53 17.65 78.1 20.92L64.01 23.65C63.97 23.39 63.97 23.12 63.97 22.82C63.97 18.29 66.97 15.18 71.23 15.18ZM96.5 12.86C93.04 12.86 90.34 14.27 88.9 16.7L88.9 13.01L86.31 13.01L86.31 33L89.01 33L89.01 22.51C89.01 17.95 91.71 15.29 96 15.29C99.8 15.29 102.01 17.46 102.01 21.68L102.01 33L104.7 33L104.7 21.41C104.7 15.67 101.36 12.86 96.5 12.86Z" />
	<path id="Forma 2" class="shp0" d="M0.5 30.5L3.5 30.5L3.5 42.5L0.5 42.5L0.5 30.5ZM0.5 42.5L15.5 42.5L15.5 45.5L0.5 45.5L0.5 42.5Z" />
	<path id="Forma 2 copy" class="shp0" d="M119.5 3.5L122.5 3.5L122.5 15.5L119.5 15.5L119.5 3.5ZM107.5 0.5L122.5 0.5L122.5 3.5L107.5 3.5L107.5 0.5Z" />
</svg>