<svg width="50" height="50" viewBox="0 0 50 50" fill="none" xmlns="http://www.w3.org/2000/svg">
<path d="M1.5 7.99999C1.5 4.41014 4.41015 1.5 8 1.5H41.9704C45.5603 1.5 48.4704 4.41015 48.4704 8V41.9704C48.4704 45.5603 45.5603 48.4704 41.9704 48.4704H7.99999C4.41014 48.4704 1.5 45.5603 1.5 41.9704V7.99999Z" stroke="#17C0C2" stroke-width="3"/>
<path fill-rule="evenodd" clip-rule="evenodd" d="M41.6535 12.9848L35.9485 40.2611C35.6809 41.5407 34.1798 42.1153 33.1261 41.3422L24.5121 35.0188L20.1217 39.5012C19.3509 40.2885 18.0197 39.9694 17.6886 38.9201L14.5197 28.8642L6.0285 26.3565C4.91447 26.0275 4.84868 24.4749 5.93092 24.0527L39.3465 11.0308C40.6184 10.5352 41.9331 11.6481 41.6535 12.9848ZM34.6765 16.4365L16.3465 27.8049C16.0241 28.0045 15.8772 28.3981 15.9901 28.7611L18.4485 36.6832C18.5 36.8499 18.7423 36.8269 18.7621 36.6536L19.3596 31.3411C19.3827 31.1361 19.4814 30.9464 19.636 30.8093L35.1579 17.0845C35.5285 16.7556 35.0976 16.1756 34.6765 16.4365Z" fill="#17C0C2"/>
</svg>
