<svg id='cog' version="1.2" baseProfile="tiny-ps" xmlns="http://www.w3.org/2000/svg" viewBox="0 0 369 369" width="369" height="369">
	<title>anel-de-noivado-svg</title>
	<style>
		tspan { white-space:pre }
		.shp0 { fill: #e63946 } 
		.shp1 { fill: #17c0c2 } 
	</style>
	<g id="Layer">
		<path id="Layer" class="shp0" d="M184.49 109.53C189.17 109.53 198.2 104 211.33 93.11C220.39 85.58 231.72 75.04 236.34 68.02C239.84 62.7 243.78 55.22 243.2 44.5C242.25 26.69 227.88 12.73 210.48 12.73C198.08 12.73 189.38 21.88 184.56 27.13C179.99 21.97 171.22 12.73 158.4 12.73C141 12.73 126.63 26.69 125.67 44.5C125.09 55.36 129.32 63.13 132.54 68.02C139.67 78.84 174.12 109.53 184.49 109.53Z" />
		<path id="Layer" fill-rule="evenodd" class="shp1" d="M368.87 239.21C368.87 303.69 316.42 356.14 251.94 356.14C226.81 356.14 203.52 348.18 184.44 334.64C165.36 348.18 142.06 356.14 116.94 356.14C52.46 356.14 0 303.68 0 239.21C0 174.73 52.46 122.27 116.94 122.27C142.06 122.27 165.36 130.24 184.44 143.77C203.52 130.24 226.82 122.27 251.94 122.27C316.42 122.27 368.87 174.73 368.87 239.21ZM203.87 239.21C203.87 218.49 196.58 199.44 184.44 184.49C172.29 199.44 165 218.49 165 239.21C165 259.93 172.29 278.97 184.44 293.93C196.58 278.97 203.87 259.93 203.87 239.21ZM116.94 326.14C133.35 326.14 148.71 321.57 161.82 313.64C145.08 293.4 135 267.46 135 239.21C135 210.95 145.07 185.01 161.82 164.78C148.71 156.84 133.35 152.27 116.94 152.27C69 152.27 30 191.27 30 239.21C30 287.14 69 326.14 116.94 326.14ZM338.88 239.21C338.88 191.27 299.88 152.27 251.94 152.27C235.53 152.27 220.17 156.84 207.06 164.78C223.8 185.01 233.87 210.95 233.87 239.21C233.87 267.46 223.8 293.4 207.06 313.64C220.17 321.57 235.53 326.14 251.94 326.14C299.88 326.14 338.88 287.14 338.88 239.21Z" />
	</g>
	<g id="Layer">
	</g>
	<g id="Layer">
	</g>
	<g id="Layer">
	</g>
	<g id="Layer">
	</g>
	<g id="Layer">
	</g>
	<g id="Layer">
	</g>
	<g id="Layer">
	</g>
	<g id="Layer">
	</g>
	<g id="Layer">
	</g>
	<g id="Layer">
	</g>
	<g id="Layer">
	</g>
	<g id="Layer">
	</g>
	<g id="Layer">
	</g>
	<g id="Layer">
	</g>
	<g id="Layer">
	</g>
</svg>